<svg width="83" height="63" viewBox="0 0 83 63" fill="none" xmlns="http://www.w3.org/2000/svg">
<path d="M4.88235 12.3647C2.18485 12.3647 0 14.4728 0 17.0751V58.2896C0 60.892 2.18485 63 4.88235 63H11.2904V12.3647H4.88235ZM78.1176 12.3647H71.0993V62.9988H78.1176C80.8151 62.9988 83 60.8908 83 58.2884V17.0739C83 14.4715 80.8151 12.3635 78.1176 12.3635V12.3647ZM61.0294 5.88796C61.0294 2.63747 58.2953 0 54.9265 0H28.0735C24.7047 0 21.9706 2.63747 21.9706 5.88796V12.3647H16.1728V62.9988H66.2169V12.3647H61.0294V5.88796ZM56.1471 12.3647H26.8529V5.88796C26.8529 5.2398 27.4022 4.71037 28.0735 4.71037H54.9265C55.5978 4.71037 56.1471 5.2398 56.1471 5.88796V12.3647Z" fill="black"/>
</svg>
